# xmcd CD database file
#
# Track frame offsets:
#	150
#	26577
#	46483
#	69578
#
# Disc length: 1223 seconds
#
# Revision: 0
# Processed by: cddbd v1.5.1PL2 Copyright (c) Steve Scherf et al.
# Submitted via: CDex 1.51
#
DISCID=3004c504
DTITLE=東真紀 - 雷鳴
DYEAR=2003
DGENRE=JPop
TTITLE0=雷鳴
TTITLE1=道標
TTITLE2=Precious path
TTITLE3=君へ
EXTD=YEAR: 2003
EXTT0=
EXTT1=
EXTT2=
EXTT3=
PLAYORDER=
